<?xml version="1.0" standalone="no"?>
<!DOCTYPE svg PUBLIC "-//W3C//DTD SVG 20010904//EN"
 "http://www.w3.org/TR/2001/REC-SVG-20010904/DTD/svg10.dtd">
<svg version="1.0" xmlns="http://www.w3.org/2000/svg"
 width="200" height="200" viewBox="0 0 1920.000000 1932.000000"
 preserveAspectRatio="xMidYMid meet">

<g transform="translate(0.000000,1932.000000) scale(0.100000,-0.100000)"
fill="#000000"  stroke="none">
<path d="M9345 19314 c-1835 -60 -3540 -596 -5052 -1590 -877 -576 -1667
-1305 -2309 -2130 -1070 -1376 -1743 -2997 -1964 -4727 -19 -149 -20 -215 -20
-1207 0 -992 1 -1058 20 -1207 126 -986 388 -1902 809 -2829 l82 -181 52 14
c29 8 104 17 167 20 75 3 145 13 200 29 47 13 115 28 151 34 36 5 99 25 140
44 41 18 104 43 141 55 37 12 94 40 128 62 126 81 243 128 375 150 65 11 74
15 121 64 28 28 68 74 89 101 62 82 199 181 280 203 52 13 451 51 541 51 38 0
90 -7 116 -14 43 -14 52 -13 135 11 71 20 117 26 238 30 143 4 154 6 230 38
44 19 139 46 210 61 115 23 141 25 230 18 120 -9 170 -9 339 2 l130 9 44 65
c71 104 127 165 213 229 121 92 234 140 411 176 15 3 29 14 33 25 3 11 11 20
16 20 14 0 11 -32 -7 -81 -10 -27 -16 -76 -16 -129 -1 -74 4 -97 35 -176 52
-134 75 -226 86 -340 7 -74 18 -122 41 -180 l31 -78 -21 -55 c-46 -125 -44
-241 6 -351 51 -109 95 -247 135 -420 13 -57 75 -259 100 -325 38 -100 87
-271 94 -324 8 -66 20 -91 44 -91 27 0 98 -55 117 -91 8 -17 20 -74 25 -126
10 -112 39 -173 107 -233 35 -31 248 -176 553 -377 57 -38 55 -27 -13 50 -110
123 -183 241 -328 527 -45 90 -76 138 -111 171 -74 72 -87 156 -37 237 53 86
173 115 254 60 86 -57 127 -110 199 -253 128 -256 166 -316 263 -414 56 -56
129 -115 192 -156 l102 -66 34 30 c49 43 96 53 190 40 43 -6 86 -15 96 -20 10
-5 90 -10 178 -11 l160 -1 49 41 c27 23 77 54 110 68 85 37 84 60 -4 132 -36
29 -65 57 -65 61 0 5 -55 59 -121 122 l-121 113 -70 8 c-80 8 -135 38 -165 88
-12 21 -30 34 -56 41 -86 23 -150 128 -130 215 8 34 6 48 -8 75 -29 55 -25
136 10 190 52 82 59 84 427 85 290 2 329 4 407 23 47 11 111 21 142 21 l57 0
81 76 c109 101 206 149 336 166 l95 13 29 50 c53 92 131 161 244 216 56 28
106 56 110 63 17 29 153 169 159 164 9 -10 -26 -70 -72 -122 -47 -52 -55 -71
-26 -61 34 10 163 -15 239 -47 131 -54 262 -202 288 -326 3 -17 10 -32 15 -32
5 0 26 21 47 46 21 25 64 75 96 111 66 75 76 93 116 200 58 155 81 214 101
254 12 22 34 77 49 122 70 204 116 304 136 296 5 -2 9 -6 8 -9 -1 -3 -4 -13
-8 -22 -5 -13 1 -18 32 -23 143 -25 383 -130 502 -220 54 -41 79 -52 173 -76
184 -47 322 -128 450 -262 l67 -70 68 31 c128 59 213 76 363 76 240 -1 328 -2
453 -1 67 0 154 -1 192 -2 39 -1 176 0 305 4 l235 6 105 -31 c135 -41 361
-130 472 -187 93 -48 137 -93 221 -224 l35 -57 109 -4 108 -4 145 -77 c80 -41
260 -126 400 -187 273 -119 509 -237 630 -314 41 -27 113 -87 160 -135 47 -47
133 -129 191 -183 111 -101 156 -167 199 -292 21 -61 58 -117 142 -212 106
-121 200 -270 232 -369 9 -27 17 -87 19 -132 2 -45 5 -84 7 -86 3 -2 15 -9 27
-16 25 -13 34 -5 216 206 1234 1429 2029 3214 2266 5091 20 156 21 212 21
1217 l0 1055 -25 187 c-182 1352 -614 2585 -1308 3738 -617 1025 -1417 1922
-2376 2664 -691 535 -1501 995 -2327 1324 -953 379 -1976 606 -2999 666 -189
11 -666 20 -820 15z m-1175 -5053 c166 -44 292 -83 352 -110 35 -16 80 -31
100 -35 21 -4 68 -21 105 -38 54 -26 86 -33 167 -40 56 -4 119 -12 141 -17 22
-5 74 -16 115 -24 41 -9 100 -21 130 -28 30 -6 127 -14 215 -18 172 -7 196
-13 245 -66 36 -40 80 -55 160 -55 125 0 213 -72 233 -190 10 -57 -9 -213 -31
-256 -48 -92 -173 -179 -493 -341 -85 -43 -87 -44 -92 -86 -8 -56 -34 -77
-149 -118 -71 -26 -105 -44 -145 -81 -29 -26 -58 -48 -64 -48 -6 0 -74 -63
-151 -141 -78 -77 -154 -147 -170 -155 -31 -16 -67 -82 -68 -122 0 -27 -20
-69 -64 -132 l-30 -45 -3 -525 c-4 -666 -5 -656 9 -712 11 -44 14 -47 67 -66
31 -11 89 -34 128 -51 104 -43 278 -64 257 -30 -3 5 -29 16 -59 24 -31 10 -71
31 -97 54 -23 21 -56 41 -73 45 -16 4 -48 26 -70 49 -34 34 -48 61 -74 141
-32 97 -32 102 -28 240 6 169 15 218 60 316 54 118 134 171 232 156 22 -4 72
-11 110 -15 39 -5 83 -14 98 -20 16 -6 49 -11 75 -11 32 0 61 -8 91 -25 23
-14 49 -25 56 -25 33 0 147 -43 205 -78 36 -22 85 -42 110 -46 25 -4 75 -16
113 -27 48 -15 81 -19 115 -15 26 4 128 11 227 16 178 10 181 10 250 45 38 19
113 46 165 59 114 28 164 45 252 85 37 17 86 38 110 46 182 66 180 66 284 65
142 0 186 -15 314 -101 l110 -74 0 -350 c0 -583 -26 -1203 -55 -1340 -8 -38
-15 -101 -15 -138 0 -38 -4 -66 -9 -63 -10 7 -15 -31 -30 -223 -6 -74 -17
-157 -26 -185 -23 -82 -55 -232 -55 -261 0 -33 -23 -164 -55 -310 -13 -60 -27
-126 -30 -145 -4 -19 -26 -96 -51 -170 -24 -74 -59 -184 -78 -245 -47 -149
-89 -257 -113 -292 -11 -15 -35 -55 -52 -88 -81 -155 -266 -429 -337 -499 -17
-17 -66 -60 -109 -96 -119 -99 -165 -140 -221 -198 -28 -29 -73 -64 -100 -77
-68 -34 -162 -117 -203 -179 -19 -28 -57 -84 -84 -124 -27 -41 -62 -108 -77
-150 -16 -43 -40 -108 -55 -147 -15 -38 -43 -110 -62 -160 -53 -140 -64 -162
-89 -186 -29 -28 -30 -20 -3 32 11 23 18 43 16 45 -9 9 -78 -80 -121 -156 -52
-90 -143 -172 -396 -360 -68 -51 -215 -123 -298 -146 -68 -19 -69 -24 -4 -43
59 -17 55 -36 -5 -25 -27 4 -113 8 -193 8 -124 0 -152 -3 -191 -21 -72 -32
-366 -109 -376 -99 -10 10 9 24 51 39 l38 13 -109 16 c-93 14 -123 24 -210 67
-115 58 -163 94 -313 231 -58 53 -125 111 -150 130 -25 18 -61 48 -80 66 -19
18 -89 61 -155 94 -66 34 -126 66 -132 72 -7 6 -13 28 -13 49 0 32 -7 44 -41
76 -60 55 -76 94 -81 198 -3 50 -17 133 -31 185 -14 52 -28 129 -32 170 -13
150 -62 325 -130 460 -38 76 -118 185 -151 207 -22 14 -53 53 -141 176 -16 22
-57 62 -93 90 -35 29 -102 90 -148 136 -77 77 -85 90 -107 160 -63 198 -200
335 -414 416 -127 47 -183 91 -238 184 -24 40 -68 103 -98 139 -30 36 -70 96
-90 133 -19 36 -54 93 -78 125 -71 97 -135 210 -182 319 -57 134 -75 204 -78
307 -2 80 -1 85 36 143 20 33 50 96 65 140 26 77 27 86 25 277 l-1 198 -48
132 c-60 172 -61 173 -88 309 -13 64 -42 160 -63 215 -37 91 -41 111 -53 261
-19 237 -6 399 49 583 10 36 24 83 30 106 13 48 104 170 151 202 51 34 104 45
159 33 25 -6 114 -18 196 -26 83 -9 179 -22 215 -30 91 -20 197 -75 250 -129
31 -33 60 -51 94 -61 27 -8 59 -21 70 -28 37 -24 224 -86 334 -111 181 -41
529 -32 667 18 39 13 90 30 115 36 25 7 71 28 103 48 l58 36 162 -12 c138 -10
169 -10 211 3 92 28 161 13 222 -49 58 -57 67 -98 60 -270 -9 -240 -30 -390
-65 -469 -12 -26 -30 -68 -42 -94 -37 -83 -95 -142 -177 -180 -40 -18 -91 -36
-113 -39 -51 -9 -135 -67 -179 -126 -26 -35 -58 -60 -127 -99 -72 -40 -93 -56
-93 -73 0 -39 -21 -95 -46 -126 -14 -16 -27 -40 -30 -52 -2 -13 -6 -36 -9 -53
-3 -16 -6 -34 -7 -40 -1 -19 23 -90 50 -145 26 -52 32 -57 112 -97 66 -32 93
-40 120 -36 19 3 71 -3 115 -12 82 -17 134 -46 156 -88 7 -12 34 -42 60 -67
55 -52 65 -83 75 -215 5 -60 14 -103 27 -130 44 -86 16 -195 -65 -251 -21 -15
-59 -51 -85 -82 -40 -47 -63 -62 -162 -109 -63 -29 -131 -66 -150 -81 -20 -15
-72 -51 -116 -81 -44 -29 -98 -66 -120 -81 -22 -15 -56 -37 -75 -49 -28 -18
-30 -21 -10 -16 32 8 173 75 180 85 3 5 24 16 48 25 23 10 42 21 42 25 0 5 35
27 78 51 42 23 82 48 87 54 15 17 91 59 164 90 69 29 116 36 226 34 172 -3
239 -1 273 9 21 6 64 19 97 28 146 40 229 91 218 133 -4 17 -95 62 -100 50 -1
-2 -13 7 -27 20 -24 23 -25 29 -21 102 2 43 8 86 14 96 5 10 16 34 25 55 20
45 104 122 161 147 54 24 135 84 199 147 40 40 55 48 86 49 21 0 46 7 55 15 9
8 38 14 63 14 l47 1 30 -62 c20 -41 36 -63 48 -63 9 0 17 4 17 9 0 5 10 11 23
15 13 3 36 17 53 31 16 14 32 25 37 25 4 0 7 7 7 15 0 8 4 15 9 15 5 0 13 9
16 21 4 12 16 30 26 40 10 10 19 27 19 37 0 10 5 23 12 30 17 17 16 133 -2
168 -46 90 -133 142 -306 183 -67 17 -73 17 -125 0 -30 -10 -54 -19 -55 -19 0
0 -6 -17 -12 -38 -14 -45 -50 -82 -83 -85 -33 -2 -56 -30 -64 -77 -9 -53 -43
-101 -85 -122 -30 -15 -43 -16 -75 -7 -29 8 -53 8 -92 -1 -29 -6 -63 -8 -75
-4 -13 4 -61 7 -108 5 l-86 -2 -51 41 c-28 22 -67 63 -87 90 -23 32 -45 52
-63 56 -48 10 -53 13 -53 29 0 9 11 38 25 65 14 27 25 54 25 60 0 8 -25 11
-72 9 -78 -3 -218 19 -218 33 0 4 -5 8 -10 8 -16 0 -43 30 -69 74 -36 63 -14
149 47 180 26 13 187 61 207 61 6 0 12 3 15 6 3 3 47 27 98 53 50 27 92 52 92
58 0 5 15 15 33 23 32 13 34 18 65 142 28 112 32 145 32 263 1 89 7 167 19
229 16 82 17 115 9 270 -8 149 -6 192 8 283 32 197 -7 363 -113 488 -45 53
-147 133 -246 194 -42 26 -119 79 -170 117 -50 38 -112 78 -136 90 -43 20
-142 83 -210 134 -19 14 -45 25 -59 25 -14 0 -52 4 -86 10 -33 5 -104 16 -156
25 -224 36 -451 38 -535 5 -18 -7 -83 -11 -158 -11 l-129 1 -58 -36 c-73 -45
-123 -63 -178 -64 -45 0 -48 -3 -102 -78 -59 -83 -169 -141 -268 -142 -75 0
-176 28 -230 64 -59 40 -118 117 -137 180 -19 63 -19 179 1 231 8 22 24 74 35
115 29 108 53 143 183 262 86 79 130 112 169 126 29 11 80 34 114 51 33 17 65
31 70 31 6 0 37 26 70 58 33 31 79 66 104 76 24 10 80 35 124 57 57 28 102 42
155 49 41 5 91 14 110 20 19 5 52 10 73 10 36 0 114 17 332 75 156 40 275 65
320 65 22 0 83 8 135 17 143 24 235 28 575 26 273 -2 319 -4 385 -22z m2325
-1245 c28 -12 93 -52 146 -87 52 -36 158 -93 235 -128 268 -123 355 -171 415
-231 70 -69 101 -143 102 -245 2 -87 -15 -122 -81 -166 -26 -18 -80 -59 -120
-91 -67 -53 -77 -58 -123 -58 -31 0 -65 8 -92 21 -43 23 -118 69 -127 80 -3 3
-45 40 -95 82 -101 88 -155 112 -266 122 -41 4 -123 13 -184 21 -60 8 -135 16
-165 18 -30 3 -98 9 -150 15 -52 6 -208 11 -346 11 -265 0 -298 5 -337 48 -25
28 -9 89 33 122 17 14 37 31 45 38 16 14 155 100 200 124 41 21 176 94 250
135 33 18 76 40 95 49 138 63 188 86 205 96 40 24 152 46 230 47 64 1 90 -4
130 -23z m-3540 -166 c112 -15 156 -26 222 -55 44 -19 87 -35 94 -35 7 0 44
-18 81 -41 57 -33 77 -52 111 -107 66 -104 82 -148 82 -224 0 -60 -3 -70 -30
-99 -16 -17 -44 -38 -62 -45 -40 -17 -110 -18 -140 -1 -26 14 -82 78 -108 124
-15 25 -31 35 -89 52 -80 24 -141 26 -356 11 -80 -6 -170 -12 -200 -15 -31 -2
-94 -13 -140 -25 -52 -13 -125 -23 -190 -24 -58 -2 -117 -7 -132 -11 -26 -7
-29 -4 -57 56 -35 79 -101 145 -195 196 -38 21 -71 43 -73 50 -3 7 8 15 24 19
15 4 57 20 93 36 41 19 95 33 147 39 45 5 94 14 108 19 15 6 47 10 73 10 26 0
88 7 137 16 50 9 121 18 158 20 49 2 76 9 98 25 60 43 85 43 344 9z m112 -796
c71 -35 123 -94 123 -139 0 -45 -25 -70 -91 -89 -77 -23 -146 -21 -185 6 -40
27 -54 56 -54 109 0 84 46 127 146 138 5 0 33 -11 61 -25z m3471 -136 c39 -24
62 -65 62 -111 0 -41 -60 -112 -104 -123 -71 -17 -166 59 -166 134 0 112 104
162 208 100z m-896 -41 c16 -10 28 -37 28 -64 0 -21 -41 -51 -80 -58 -81 -14
-150 48 -115 101 8 13 28 26 43 30 15 3 32 7 37 9 15 5 67 -6 87 -18z"/>
<path d="M10246 9768 c-37 -52 -13 -155 92 -403 30 -71 65 -159 77 -195 12
-36 33 -81 47 -101 14 -21 31 -51 38 -68 13 -32 30 -42 30 -18 0 7 19 44 41
82 l42 68 5 134 5 133 -49 48 c-31 30 -73 93 -113 166 -36 64 -80 130 -98 147
-42 37 -94 40 -117 7z"/>
<path d="M7028 8613 c7 -3 16 -2 19 1 4 3 -2 6 -13 5 -11 0 -14 -3 -6 -6z"/>
<path d="M9580 8526 c-66 -34 -155 -47 -253 -36 -137 15 -218 14 -259 -4 -21
-9 -38 -17 -38 -19 0 -1 -13 -35 -30 -75 -27 -66 -79 -146 -106 -164 -6 -4
-17 -22 -24 -39 -13 -29 -12 -33 9 -50 42 -34 132 -26 239 21 50 21 108 50
129 63 48 30 105 45 213 56 138 13 402 -5 490 -34 55 -19 119 -77 127 -116 7
-37 15 -36 46 5 14 18 51 45 81 59 31 15 56 28 56 31 0 2 -30 27 -67 55 -54
41 -97 88 -119 129 0 1 -49 7 -107 12 -142 14 -222 40 -280 90 -25 22 -49 40
-54 40 -4 -1 -28 -11 -53 -24z"/>
<path d="M6776 8525 c-48 -17 -58 -28 -80 -88 -12 -33 -18 -81 -20 -152 -1
-99 -3 -106 -32 -148 l-31 -44 21 -29 c17 -23 21 -43 20 -101 l0 -71 40 -11
c23 -6 60 -15 84 -21 53 -13 106 -59 118 -102 8 -28 15 -34 51 -40 39 -6 170
-67 242 -112 111 -70 193 -113 285 -151 106 -43 137 -61 216 -125 25 -21 78
-54 118 -75 80 -41 76 -41 232 -15 67 12 156 23 320 40 113 12 146 19 226 52
33 14 85 31 114 38 132 32 389 130 461 176 94 60 223 166 317 261 77 78 114
101 202 127 30 9 66 24 78 34 l24 18 -24 16 c-89 58 -212 9 -399 -159 -279
-250 -396 -316 -639 -361 -177 -32 -361 -21 -675 39 -27 5 -97 16 -155 24
-107 15 -189 31 -225 45 -36 14 -208 99 -295 146 -137 73 -293 125 -450 147
-160 23 -229 67 -187 119 19 24 118 84 157 96 53 16 99 21 280 32 169 11 240
24 240 46 0 6 -24 17 -52 24 -87 19 -88 20 -88 45 0 28 24 44 189 130 173 90
158 100 -64 39 -138 -37 -289 -64 -355 -62 -127 3 -215 102 -157 176 13 17
-56 15 -107 -3z"/>
<path d="M7490 3205 c27 -28 80 -55 109 -55 41 0 20 18 -55 48 -74 29 -75 30
-54 7z"/>
</g>
</svg>
